<svg xmlns="http://www.w3.org/2000/svg" viewBox="0 0 995.7 375.7" height="64">
  <g isolation="isolate">
    <path d="M342.8,373h-20.2v-177.5h21.8v63.3c9.2-11.5,20.9-17.3,35.2-17.3s15.4,1.6,22.5,4.8c7.1,3.2,12.9,7.7,17.4,13.4,4.6,5.8,8.1,12.7,10.7,20.9,2.6,8.2,3.9,16.9,3.9,26.2,0,22-5.4,39.1-16.3,51.1-10.9,12-24,18-39.2,18s-27.1-6.3-35.7-19v16.1ZM342.6,307.7c0,15.4,2.1,26.6,6.3,33.4,6.9,11.2,16.1,16.8,27.9,16.8s17.8-4.1,24.7-12.4c6.9-8.3,10.4-20.6,10.4-37s-3.3-29.2-10-37.2-14.7-12-24.2-12-17.8,4.1-24.7,12.4c-6.9,8.3-10.4,20.2-10.4,35.9Z"/>
    <path d="M460.4,373v-128.6h19.6v19.5c5-9.1,9.6-15.1,13.9-18s8.9-4.4,14-4.4c7.3,0,14.8,2.3,22.4,7l-7.5,20.2c-5.3-3.1-10.7-4.7-16-4.7s-9,1.4-12.8,4.3c-3.8,2.9-6.5,6.8-8.1,11.9-2.4,7.8-3.6,16.2-3.6,25.4v67.3h-21.8Z"/>
    <path d="M627.5,373v-18.9c-10,14.5-23.6,21.8-40.8,21.8s-14.7-1.5-21.3-4.4c-6.6-2.9-11.5-6.6-14.7-11-3.2-4.4-5.4-9.8-6.7-16.2-.9-4.3-1.3-11.1-1.3-20.3v-79.7h21.8v71.3c0,11.4.4,19.1,1.3,23,1.4,5.7,4.3,10.2,8.7,13.5,4.4,3.3,9.9,4.9,16.5,4.9s12.7-1.7,18.4-5c5.7-3.3,9.8-7.9,12.2-13.7,2.4-5.8,3.6-14.1,3.6-25.1v-68.9h21.8v128.6h-19.5Z"/>
    <path d="M680.7,373v-177.5h21.8v177.5h-21.8Z"/>
    <path d="M736.2,373v-177.5h21.8v63.7c10.2-11.8,23-17.7,38.5-17.7s17.8,1.9,24.8,5.6,12,8.9,15.1,15.6c3,6.6,4.5,16.2,4.5,28.8v81.5h-21.8v-81.5c0-10.9-2.4-18.8-7.1-23.8s-11.4-7.4-20-7.4-12.5,1.7-18.2,5c-5.7,3.4-9.7,7.9-12.2,13.6-2.4,5.7-3.6,13.6-3.6,23.7v70.4h-21.8Z"/>
    <path d="M962.2,331.6l22.5,2.8c-3.6,13.2-10.1,23.4-19.7,30.6-9.6,7.3-21.9,10.9-36.8,10.9s-33.7-5.8-44.7-17.4c-11-11.6-16.5-27.8-16.5-48.7s5.6-38.4,16.7-50.4c11.1-11.9,25.6-17.9,43.4-17.9s31.2,5.9,42.1,17.6c10.9,11.7,16.3,28.2,16.3,49.4s0,3.2-.1,5.8h-95.9c.8,14.1,4.8,24.9,12,32.5,7.2,7.5,16.1,11.3,26.9,11.3s14.8-2.1,20.5-6.3c5.6-4.2,10.1-10.9,13.4-20.1ZM890.6,296.3h71.8c-1-10.8-3.7-18.9-8.2-24.3-6.9-8.4-15.9-12.6-27-12.6s-18.4,3.4-25.2,10.1c-6.8,6.7-10.6,15.7-11.3,26.9ZM914.1,228.4l16.1-33.9h28.6l-26.6,33.9h-18Z"/>
  </g>
  <g>
    <path d="M259,50.3h-10.7l-19.7-39.3L35.9,0,10.7,50.3H0v69.7h19.7l24.9,254h171.5l24.9-254h18V50.3Z" fill-rule="evenodd"/>
    <rect x="29.9" y="74.7" width="199.2" height="14.9" fill="#fff"/>
    <polygon points="209.7 39.3 217.4 54.8 41.6 54.8 53.8 30.4 209.7 39.3" fill="#fff" fill-rule="evenodd"/>
    <polygon points="71.7 343.6 66.3 288.8 194.4 288.8 189 343.6 71.7 343.6" fill="#fff" fill-rule="evenodd"/>
    <polygon points="206.1 169.3 54.6 169.3 49.7 119.5 211 119.5 206.1 169.3" fill="#fff" fill-rule="evenodd"/>
  </g>
</svg>